<svg width="124" height="45" viewBox="0 0 124 45" fill="none" xmlns="http://www.w3.org/2000/svg">
  <g clip-path="url(#clip0_300_6)">
    <path d="M33.9171 28.9821C32.9171 29.6786 31.5 30.0357 29.8657 30.0357C26.5 30.0357 24.5814 28.0179 24.5814 25.2143C24.5814 22.4107 26.5 20.3929 29.8657 20.3929C31.2829 20.3929 32.6171 20.8214 33.4343 21.5893L32.1 23.1429C31.5 22.625 30.7657 22.375 29.8657 22.375C27.8643 22.375 26.65 23.5179 26.65 25.2143C26.65 26.9107 27.8643 28.0536 29.8657 28.0536C30.7657 28.0536 31.6657 27.8036 32.1 27.2857L33.9171 28.9821Z" fill="#009682"/>
    <path d="M43.4 30.0357C40.0343 30.0357 38 28.0179 38 25.2143C38 22.4107 40.0343 20.3929 43.4 20.3929C46.7657 20.3929 48.8 22.4107 48.8 25.2143C48.8 28.0179 46.7657 30.0357 43.4 30.0357ZM43.4 28.0536C45.4014 28.0536 46.7314 26.9107 46.7314 25.2143C46.7314 23.5179 45.4014 22.375 43.4 22.375C41.3986 22.375 40.0686 23.5179 40.0686 25.2143C40.0686 26.9107 41.3986 28.0536 43.4 28.0536Z" fill="#009682"/>
    <path d="M49.8171 20.625H51.8186V23.7321C52.3357 21.7143 53.8857 20.3929 55.6357 20.3929C55.8186 20.3929 56 20.3929 56.1829 20.4286V22.375C55.9171 22.3393 55.65 22.3036 55.3857 22.3036C53.5686 22.3036 51.8186 23.9643 51.8186 27.2143V29.8036H49.8171V20.625Z" fill="#009682"/>
    <path d="M66.5343 29.8036L62.5686 25.9821L61.3543 27.3571V29.8036H59.3529V15.5357H61.3543V25.1429L66.1686 20.625H68.6171L64.35 24.5714L69 29.8036H66.5343Z" fill="#009682"/>
    <path d="M76.4171 30.0357C72.6343 30.0357 70.2686 27.9821 70.2686 24.9643C70.2686 21.9464 72.3686 20 75.85 20C79.1329 20 81.0513 22.1607 81.0513 25.0357V25.9107H72.3686C72.55 27.4643 73.8814 28.4107 76.4171 28.4107C77.7513 28.4107 79.0857 28.125 80.05 27.5893L80.7843 29.25C79.7029 29.8572 78.0686 30.0357 76.4171 30.0357ZM79.05 24.3214C79.05 22.7321 77.9514 21.625 75.85 21.625C73.9314 21.625 72.55 22.6786 72.3686 24.3214H79.05Z" fill="#009682"/>
    <path d="M85.2343 15.5357H87.2357V24.3214L92.2 20.625H94.8186L89.6 24.5714L95.2043 29.8036H92.5857L87.2357 24.7857V29.8036H85.2343V15.5357Z" fill="#009682"/>
    <path d="M104.9 17.9107C102.1 17.9107 100 16.1429 100 13.8214C100 11.5 102.1 9.73214 104.9 9.73214C107.7 9.73214 109.8 11.5 109.8 13.8214C109.8 16.1429 107.7 17.9107 104.9 17.9107Z" fill="#F16E00"/>
  </g>
  <defs>
    <clipPath id="clip0_300_6">
      <rect width="124" height="45" fill="white"/>
    </clipPath>
  </defs>
</svg> 